<?xml version="1.0" standalone="no"?>
<!DOCTYPE svg PUBLIC "-//W3C//DTD SVG 20010904//EN"
 "http://www.w3.org/TR/2001/REC-SVG-20010904/DTD/svg10.dtd">
<svg version="1.0" xmlns="http://www.w3.org/2000/svg"
 width="700.000000pt" height="700.000000pt" viewBox="0 0 700.000000 700.000000"
 preserveAspectRatio="xMidYMid meet">
<metadata>
Created by potrace 1.14, written by Peter Selinger 2001-2017
</metadata>
<g transform="translate(0.000000,700.000000) scale(0.100000,-0.100000)"
fill="#000000" stroke="none">
<path d="M3112 5539 c-18 -6 -52 -29 -74 -52 -55 -57 -2268 -3948 -2268 -3989
0 -17 7 -31 20 -38 12 -7 97 -9 231 -8 l212 3 938 1649 c516 907 941 1652 946
1657 4 4 134 -214 288 -486 154 -271 283 -490 287 -487 4 4 133 230 288 502
155 272 295 518 310 546 l29 50 -164 290 c-172 301 -205 345 -274 364 -46 13
-724 12 -769 -1z"/>
<path d="M4038 3942 c-498 -878 -910 -1598 -915 -1599 -5 -2 -105 167 -223
376 -159 281 -218 376 -226 368 -30 -32 -217 -376 -221 -408 -5 -33 23 -86
313 -598 329 -579 338 -593 381 -565 25 17 2025 3547 2030 3584 4 30 -11 62
-107 230 -61 107 -114 198 -118 201 -4 4 -415 -711 -914 -1589z"/>
<path d="M5188 3308 c-42 -66 -611 -1074 -611 -1082 0 -6 98 -183 218 -393
l217 -383 593 0 c540 0 595 2 610 17 10 9 15 27 13 42 -3 18 -996 1785 -1023
1819 -1 1 -9 -8 -17 -20z"/>
</g>
</svg>
